{
    "asset" : {
        "generator" : "Khronos glTF Blender I/O v1.6.16",
        "version" : "2.0"
    },
    "scene" : 0,
    "scenes" : [
        {
            "name" : "Scene",
            "nodes" : [
                0,
                1,
                2,
                3,
                4,
                5
            ]
        }
    ],
    "nodes" : [
        {
            "name" : "Light",
            "rotation" : [
                0.16907575726509094,
                0.7558803558349609,
                -0.27217137813568115,
                0.570947527885437
            ],
            "translation" : [
                4.076245307922363,
                5.903861999511719,
                -1.0054539442062378
            ]
        },
        {
            "name" : "Camera",
            "rotation" : [
                0.483536034822464,
                0.33687159419059753,
                -0.20870360732078552,
                0.7804827094078064
            ],
            "translation" : [
                7.358891487121582,
                4.958309173583984,
                6.925790786743164
            ]
        },
        {
            "mesh" : 0,
            "name" : "text",
            "scale" : [
                0.2873534560203552,
                0.2873534560203552,
                0.2873534560203552
            ],
            "translation" : [
                2.256664276123047,
                0,
                -0.5083924531936646
            ]
        },
        {
            "mesh" : 1,
            "name" : "text.001",
            "scale" : [
                0.2873534560203552,
                0.2873534560203552,
                0.2873534560203552
            ],
            "translation" : [
                2.256664276123047,
                0,
                -0.17751377820968628
            ]
        },
        {
            "mesh" : 2,
            "name" : "text.002",
            "scale" : [
                0.2873534560203552,
                0.2873534560203552,
                0.2873534560203552
            ],
            "translation" : [
                2.256664276123047,
                0,
                0.16020716726779938
            ]
        },
        {
            "mesh" : 3,
            "name" : "Plane",
            "scale" : [
                1.1641641855239868,
                1,
                1.5587091445922852
            ],
            "translation" : [
                0.8429257869720459,
                0.000492095947265625,
                0.39441871643066406
            ]
        }
    ],
    "materials" : [
        {
            "doubleSided" : true,
            "name" : "Material.002",
            "pbrMetallicRoughness" : {
                "baseColorFactor" : [
                    0,
                    0.8000000715255737,
                    0.01213220413774252,
                    1
                ],
                "metallicFactor" : 0,
                "roughnessFactor" : 0.5
            }
        },
        {
            "doubleSided" : true,
            "name" : "Material.001",
            "pbrMetallicRoughness" : {
                "baseColorTexture" : {
                    "index" : 0
                },
                "metallicFactor" : 0,
                "roughnessFactor" : 0.5
            }
        }
    ],
    "meshes" : [
        {
            "name" : "Text",
            "primitives" : [
                {
                    "attributes" : {
                        "POSITION" : 0,
                        "NORMAL" : 1,
                        "TEXCOORD_0" : 2
                    },
                    "indices" : 3,
                    "material" : 0
                }
            ]
        },
        {
            "name" : "Text.001",
            "primitives" : [
                {
                    "attributes" : {
                        "POSITION" : 4,
                        "NORMAL" : 5,
                        "TEXCOORD_0" : 6
                    },
                    "indices" : 7,
                    "material" : 0
                }
            ]
        },
        {
            "name" : "Text.002",
            "primitives" : [
                {
                    "attributes" : {
                        "POSITION" : 8,
                        "NORMAL" : 9,
                        "TEXCOORD_0" : 10
                    },
                    "indices" : 11,
                    "material" : 0
                }
            ]
        },
        {
            "name" : "Plane",
            "primitives" : [
                {
                    "attributes" : {
                        "POSITION" : 12,
                        "NORMAL" : 13,
                        "TEXCOORD_0" : 14
                    },
                    "indices" : 15,
                    "material" : 1
                }
            ]
        }
    ],
    "textures" : [
        {
            "sampler" : 0,
            "source" : 0
        }
    ],
    "images" : [
        {
            "mimeType" : "image/jpeg",
            "name" : "imagen",
            "uri" : "imagen.jpg"
        }
    ],
    "accessors" : [
        {
            "bufferView" : 0,
            "componentType" : 5126,
            "count" : 4017,
            "max" : [
                16.785999298095703,
                0,
                0.23000000417232513
            ],
            "min" : [
                0,
                0,
                -0.6914074420928955
            ],
            "type" : "VEC3"
        },
        {
            "bufferView" : 1,
            "componentType" : 5126,
            "count" : 4017,
            "type" : "VEC3"
        },
        {
            "bufferView" : 2,
            "componentType" : 5126,
            "count" : 4017,
            "type" : "VEC2"
        },
        {
            "bufferView" : 3,
            "componentType" : 5123,
            "count" : 8793,
            "type" : "SCALAR"
        },
        {
            "bufferView" : 4,
            "componentType" : 5126,
            "count" : 5316,
            "max" : [
                22.397998809814453,
                0,
                0.23000000417232513
            ],
            "min" : [
                0,
                0,
                -0.6914074420928955
            ],
            "type" : "VEC3"
        },
        {
            "bufferView" : 5,
            "componentType" : 5126,
            "count" : 5316,
            "type" : "VEC3"
        },
        {
            "bufferView" : 6,
            "componentType" : 5126,
            "count" : 5316,
            "type" : "VEC2"
        },
        {
            "bufferView" : 7,
            "componentType" : 5123,
            "count" : 11697,
            "type" : "SCALAR"
        },
        {
            "bufferView" : 8,
            "componentType" : 5126,
            "count" : 20647,
            "max" : [
                28.159000396728516,
                0,
                5.008999824523926
            ],
            "min" : [
                0.04800000041723251,
                0,
                -0.7290000319480896
            ],
            "type" : "VEC3"
        },
        {
            "bufferView" : 9,
            "componentType" : 5126,
            "count" : 20647,
            "type" : "VEC3"
        },
        {
            "bufferView" : 10,
            "componentType" : 5126,
            "count" : 20647,
            "type" : "VEC2"
        },
        {
            "bufferView" : 11,
            "componentType" : 5123,
            "count" : 45939,
            "type" : "SCALAR"
        },
        {
            "bufferView" : 12,
            "componentType" : 5126,
            "count" : 4,
            "max" : [
                1,
                0,
                1
            ],
            "min" : [
                -1,
                0,
                -1
            ],
            "type" : "VEC3"
        },
        {
            "bufferView" : 13,
            "componentType" : 5126,
            "count" : 4,
            "type" : "VEC3"
        },
        {
            "bufferView" : 14,
            "componentType" : 5126,
            "count" : 4,
            "type" : "VEC2"
        },
        {
            "bufferView" : 15,
            "componentType" : 5123,
            "count" : 6,
            "type" : "SCALAR"
        }
    ],
    "bufferViews" : [
        {
            "buffer" : 0,
            "byteLength" : 48204,
            "byteOffset" : 0
        },
        {
            "buffer" : 0,
            "byteLength" : 48204,
            "byteOffset" : 48204
        },
        {
            "buffer" : 0,
            "byteLength" : 32136,
            "byteOffset" : 96408
        },
        {
            "buffer" : 0,
            "byteLength" : 17586,
            "byteOffset" : 128544
        },
        {
            "buffer" : 0,
            "byteLength" : 63792,
            "byteOffset" : 146132
        },
        {
            "buffer" : 0,
            "byteLength" : 63792,
            "byteOffset" : 209924
        },
        {
            "buffer" : 0,
            "byteLength" : 42528,
            "byteOffset" : 273716
        },
        {
            "buffer" : 0,
            "byteLength" : 23394,
            "byteOffset" : 316244
        },
        {
            "buffer" : 0,
            "byteLength" : 247764,
            "byteOffset" : 339640
        },
        {
            "buffer" : 0,
            "byteLength" : 247764,
            "byteOffset" : 587404
        },
        {
            "buffer" : 0,
            "byteLength" : 165176,
            "byteOffset" : 835168
        },
        {
            "buffer" : 0,
            "byteLength" : 91878,
            "byteOffset" : 1000344
        },
        {
            "buffer" : 0,
            "byteLength" : 48,
            "byteOffset" : 1092224
        },
        {
            "buffer" : 0,
            "byteLength" : 48,
            "byteOffset" : 1092272
        },
        {
            "buffer" : 0,
            "byteLength" : 32,
            "byteOffset" : 1092320
        },
        {
            "buffer" : 0,
            "byteLength" : 12,
            "byteOffset" : 1092352
        }
    ],
    "samplers" : [
        {
            "magFilter" : 9729,
            "minFilter" : 9987
        }
    ],
    "buffers" : [
        {
            "byteLength" : 1092364,
            "uri" : "1.bin"
        }
    ]
}
